<svg xmlns="http://www.w3.org/2000/svg" xmlns:xlink="http://www.w3.org/1999/xlink" width="150" zoomAndPan="magnify" viewBox="0 0 112.5 60" height="80" preserveAspectRatio="xMidYMid meet" version="1.0"><defs><g/></defs><g fill="#ffffff" fill-opacity="1"><g transform="translate(8.175586, 46.310642)"><g><path d="M 1.640625 0 L 1.640625 -0.328125 C 2.398438 -0.523438 2.941406 -0.984375 3.265625 -1.703125 C 3.597656 -2.421875 3.765625 -3.378906 3.765625 -4.578125 L 3.765625 -31.5625 C 3.765625 -32.519531 3.671875 -33.242188 3.484375 -33.734375 C 3.296875 -34.222656 3.046875 -34.546875 2.734375 -34.703125 C 2.421875 -34.867188 2.054688 -34.953125 1.640625 -34.953125 L 1.640625 -35.28125 C 2.734375 -35.394531 3.894531 -35.5625 5.125 -35.78125 C 6.351562 -36 7.550781 -36.242188 8.71875 -36.515625 C 9.882812 -36.785156 10.925781 -37.046875 11.84375 -37.296875 C 12.757812 -37.546875 13.445312 -37.757812 13.90625 -37.9375 L 14.234375 -37.9375 L 14.234375 -4.546875 C 14.234375 -3.347656 14.394531 -2.394531 14.71875 -1.6875 C 15.050781 -0.976562 15.601562 -0.523438 16.375 -0.328125 L 16.375 0 Z M 1.640625 0 "/></g></g></g><g fill="#ffffff" fill-opacity="1"><g transform="translate(25.197586, 46.310642)"><g><path d="M 0.8125 0 L 0.8125 -0.328125 C 1.582031 -0.523438 2.128906 -0.984375 2.453125 -1.703125 C 2.785156 -2.421875 2.953125 -3.378906 2.953125 -4.578125 L 2.953125 -32.734375 C 2.953125 -33.953125 2.785156 -34.914062 2.453125 -35.625 C 2.128906 -36.332031 1.582031 -36.785156 0.8125 -36.984375 L 0.8125 -37.3125 L 15.546875 -37.3125 L 15.546875 -36.984375 C 14.785156 -36.785156 14.238281 -36.332031 13.90625 -35.625 C 13.582031 -34.914062 13.421875 -33.953125 13.421875 -32.734375 L 13.421875 -4.578125 C 13.421875 -3.378906 13.582031 -2.421875 13.90625 -1.703125 C 14.238281 -0.984375 14.785156 -0.523438 15.546875 -0.328125 L 15.546875 0 Z M 0.8125 0 "/></g></g></g><g fill="#ffffff" fill-opacity="1"><g transform="translate(40.582851, 46.310642)"><g><path d="M 2.953125 -32.734375 C 2.953125 -33.953125 2.785156 -34.914062 2.453125 -35.625 C 2.128906 -36.332031 1.582031 -36.785156 0.8125 -36.984375 L 0.8125 -37.3125 L 15.546875 -37.3125 L 15.546875 -36.984375 C 14.785156 -36.785156 14.238281 -36.332031 13.90625 -35.625 C 13.582031 -34.914062 13.421875 -33.953125 13.421875 -32.734375 L 13.421875 -23.640625 C 13.765625 -23.960938 14.210938 -24.40625 14.765625 -24.96875 C 15.328125 -25.539062 15.921875 -26.171875 16.546875 -26.859375 C 17.171875 -27.546875 17.753906 -28.269531 18.296875 -29.03125 C 18.835938 -29.800781 19.285156 -30.550781 19.640625 -31.28125 C 19.992188 -32.007812 20.171875 -32.691406 20.171875 -33.328125 C 20.171875 -34.203125 20.054688 -34.878906 19.828125 -35.359375 C 19.597656 -35.835938 19.28125 -36.195312 18.875 -36.4375 C 18.46875 -36.675781 18.003906 -36.859375 17.484375 -36.984375 L 17.484375 -37.3125 L 32.203125 -37.3125 L 32.203125 -36.984375 C 31.335938 -36.765625 30.3125 -36.285156 29.125 -35.546875 C 27.945312 -34.804688 26.691406 -33.910156 25.359375 -32.859375 C 24.035156 -31.816406 22.703125 -30.71875 21.359375 -29.5625 C 20.015625 -28.40625 18.734375 -27.285156 17.515625 -26.203125 C 16.296875 -25.117188 15.203125 -24.175781 14.234375 -23.375 C 15.203125 -23.5 16.085938 -23.5625 16.890625 -23.5625 C 18.679688 -23.5625 20.179688 -23.289062 21.390625 -22.75 C 22.597656 -22.207031 23.59375 -21.460938 24.375 -20.515625 C 25.164062 -19.578125 25.804688 -18.515625 26.296875 -17.328125 C 26.785156 -16.140625 27.179688 -14.890625 27.484375 -13.578125 C 27.796875 -12.273438 28.078125 -10.988281 28.328125 -9.71875 C 28.578125 -8.457031 28.859375 -7.273438 29.171875 -6.171875 C 29.492188 -5.066406 29.914062 -4.117188 30.4375 -3.328125 C 30.96875 -2.546875 31.65625 -2.003906 32.5 -1.703125 C 32.5 -1.703125 32.425781 -1.585938 32.28125 -1.359375 C 32.144531 -1.128906 31.894531 -0.851562 31.53125 -0.53125 C 31.175781 -0.21875 30.671875 0.0507812 30.015625 0.28125 C 29.359375 0.507812 28.519531 0.625 27.5 0.625 C 25.644531 0.625 24.097656 0.363281 22.859375 -0.15625 C 21.628906 -0.6875 20.632812 -1.398438 19.875 -2.296875 C 19.125 -3.191406 18.550781 -4.21875 18.15625 -5.375 C 17.769531 -6.53125 17.5 -7.742188 17.34375 -9.015625 C 17.195312 -10.296875 17.09375 -11.578125 17.03125 -12.859375 C 16.976562 -14.148438 16.921875 -15.375 16.859375 -16.53125 C 16.796875 -17.6875 16.660156 -18.722656 16.453125 -19.640625 C 16.242188 -20.554688 15.90625 -21.273438 15.4375 -21.796875 C 14.96875 -22.328125 14.296875 -22.601562 13.421875 -22.625 L 13.421875 -4.578125 C 13.421875 -3.378906 13.582031 -2.421875 13.90625 -1.703125 C 14.238281 -0.984375 14.785156 -0.523438 15.546875 -0.328125 L 15.546875 0 L 0.8125 0 L 0.8125 -0.328125 C 1.582031 -0.523438 2.128906 -0.984375 2.453125 -1.703125 C 2.785156 -2.421875 2.953125 -3.378906 2.953125 -4.578125 Z M 2.953125 -32.734375 "/></g></g></g><g fill="#ffffff" fill-opacity="1"><g transform="translate(72.924781, 46.310642)"><g><path d="M 27.078125 0 L 0.8125 0 L 0.8125 -0.328125 C 1.582031 -0.523438 2.128906 -0.984375 2.453125 -1.703125 C 2.785156 -2.421875 2.953125 -3.378906 2.953125 -4.578125 L 2.953125 -32.734375 C 2.953125 -33.953125 2.785156 -34.914062 2.453125 -35.625 C 2.128906 -36.332031 1.582031 -36.785156 0.8125 -36.984375 L 0.8125 -37.3125 L 27.078125 -37.3125 L 27.078125 -26.0625 L 26.75 -26.0625 C 26.75 -26.78125 26.566406 -27.597656 26.203125 -28.515625 C 25.835938 -29.429688 25.316406 -30.367188 24.640625 -31.328125 C 23.972656 -32.285156 23.179688 -33.160156 22.265625 -33.953125 C 21.347656 -34.753906 20.320312 -35.40625 19.1875 -35.90625 C 18.050781 -36.40625 16.835938 -36.65625 15.546875 -36.65625 L 13.421875 -36.65625 L 13.421875 -20.265625 L 14.703125 -20.265625 C 15.503906 -20.265625 16.320312 -20.429688 17.15625 -20.765625 C 18 -21.109375 18.785156 -21.546875 19.515625 -22.078125 C 20.253906 -22.609375 20.867188 -23.203125 21.359375 -23.859375 C 21.847656 -24.515625 22.148438 -25.148438 22.265625 -25.765625 L 22.59375 -25.765625 L 22.59375 -14.109375 L 22.265625 -14.109375 C 22.148438 -14.742188 21.847656 -15.378906 21.359375 -16.015625 C 20.867188 -16.660156 20.253906 -17.25 19.515625 -17.78125 C 18.785156 -18.320312 18 -18.757812 17.15625 -19.09375 C 16.320312 -19.4375 15.503906 -19.609375 14.703125 -19.609375 L 13.421875 -19.609375 L 13.421875 -0.65625 L 15.546875 -0.65625 C 16.835938 -0.65625 18.050781 -0.90625 19.1875 -1.40625 C 20.320312 -1.90625 21.347656 -2.550781 22.265625 -3.34375 C 23.179688 -4.144531 23.972656 -5.023438 24.640625 -5.984375 C 25.316406 -6.953125 25.835938 -7.894531 26.203125 -8.8125 C 26.566406 -9.726562 26.75 -10.546875 26.75 -11.265625 L 27.078125 -11.265625 Z M 27.078125 0 "/></g></g></g><g fill="#ffffff" fill-opacity="1"><g transform="translate(10.453539, 52.812673)"><g><path d="M 0.46875 0 L 0.46875 -3.25 L 1.59375 -3.25 C 1.925781 -3.25 2.21875 -3.175781 2.46875 -3.03125 C 2.71875 -2.894531 2.910156 -2.707031 3.046875 -2.46875 C 3.191406 -2.226562 3.265625 -1.945312 3.265625 -1.625 C 3.265625 -1.300781 3.191406 -1.015625 3.046875 -0.765625 C 2.910156 -0.523438 2.71875 -0.335938 2.46875 -0.203125 C 2.21875 -0.0664062 1.925781 0 1.59375 0 Z M 0.875 -0.390625 L 1.59375 -0.390625 C 1.84375 -0.390625 2.0625 -0.441406 2.25 -0.546875 C 2.4375 -0.648438 2.582031 -0.789062 2.6875 -0.96875 C 2.789062 -1.15625 2.84375 -1.375 2.84375 -1.625 C 2.84375 -1.875 2.789062 -2.085938 2.6875 -2.265625 C 2.582031 -2.453125 2.429688 -2.597656 2.234375 -2.703125 C 2.046875 -2.804688 1.828125 -2.859375 1.578125 -2.859375 L 0.875 -2.859375 Z M 0.875 -0.390625 "/></g></g></g><g fill="#ffffff" fill-opacity="1"><g transform="translate(17.686344, 52.812673)"><g><path d="M 0.46875 0 L 0.46875 -3.25 L 1.71875 -3.25 C 1.9375 -3.25 2.128906 -3.207031 2.296875 -3.125 C 2.460938 -3.039062 2.59375 -2.921875 2.6875 -2.765625 C 2.78125 -2.609375 2.828125 -2.421875 2.828125 -2.203125 C 2.828125 -1.941406 2.757812 -1.722656 2.625 -1.546875 C 2.488281 -1.378906 2.300781 -1.265625 2.0625 -1.203125 L 2.875 0 L 2.390625 0 L 1.59375 -1.171875 L 0.875 -1.171875 L 0.875 0 Z M 0.875 -1.546875 L 1.671875 -1.546875 C 1.898438 -1.546875 2.078125 -1.601562 2.203125 -1.71875 C 2.335938 -1.832031 2.40625 -1.992188 2.40625 -2.203125 C 2.40625 -2.410156 2.335938 -2.570312 2.203125 -2.6875 C 2.078125 -2.800781 1.898438 -2.859375 1.671875 -2.859375 L 0.875 -2.859375 Z M 0.875 -1.546875 "/></g></g></g><g fill="#ffffff" fill-opacity="1"><g transform="translate(24.548471, 52.812673)"><g><path d="M 0.46875 0 L 0.46875 -3.25 L 2.453125 -3.25 L 2.453125 -2.875 L 0.875 -2.875 L 0.875 -1.84375 L 2.328125 -1.84375 L 2.328125 -1.46875 L 0.875 -1.46875 L 0.875 -0.375 L 2.5 -0.375 L 2.5 0 Z M 0.46875 0 "/></g></g></g><g fill="#ffffff" fill-opacity="1"><g transform="translate(31.049191, 52.812673)"><g><path d="M 0.078125 0 L 1.421875 -3.25 L 1.796875 -3.25 L 3.125 0 L 2.703125 0 L 2.390625 -0.734375 L 0.8125 -0.734375 L 0.515625 0 Z M 0.96875 -1.125 L 2.234375 -1.125 L 1.609375 -2.671875 Z M 0.96875 -1.125 "/></g></g></g><g fill="#ffffff" fill-opacity="1"><g transform="translate(37.962287, 52.812673)"><g><path d="M 0.46875 0 L 0.46875 -3.25 L 0.859375 -3.25 L 2.125 -1.328125 L 3.390625 -3.25 L 3.78125 -3.25 L 3.78125 0 L 3.375 0 L 3.375 -2.484375 L 2.296875 -0.859375 L 1.953125 -0.859375 L 0.875 -2.484375 L 0.875 0 Z M 0.46875 0 "/></g></g></g><g fill="#ffffff" fill-opacity="1"><g transform="translate(45.916148, 52.812673)"><g/></g></g><g fill="#ffffff" fill-opacity="1"><g transform="translate(50.77199, 52.812673)"><g/></g></g><g fill="#ffffff" fill-opacity="1"><g transform="translate(55.627833, 52.812673)"><g/></g></g><g fill="#ffffff" fill-opacity="1"><g transform="translate(60.483676, 52.812673)"><g/></g></g><g fill="#ffffff" fill-opacity="1"><g transform="translate(65.342755, 52.812673)"><g><path d="M 0.078125 0 L 1.421875 -3.25 L 1.796875 -3.25 L 3.125 0 L 2.703125 0 L 2.390625 -0.734375 L 0.8125 -0.734375 L 0.515625 0 Z M 0.96875 -1.125 L 2.234375 -1.125 L 1.609375 -2.671875 Z M 0.96875 -1.125 "/></g></g></g><g fill="#ffffff" fill-opacity="1"><g transform="translate(72.255852, 52.812673)"><g><path d="M 1.90625 0.0625 C 1.664062 0.0625 1.445312 0.0195312 1.25 -0.0625 C 1.050781 -0.144531 0.878906 -0.257812 0.734375 -0.40625 C 0.585938 -0.5625 0.472656 -0.738281 0.390625 -0.9375 C 0.304688 -1.144531 0.265625 -1.375 0.265625 -1.625 C 0.265625 -1.863281 0.304688 -2.085938 0.390625 -2.296875 C 0.472656 -2.503906 0.585938 -2.679688 0.734375 -2.828125 C 0.878906 -2.984375 1.050781 -3.101562 1.25 -3.1875 C 1.445312 -3.269531 1.664062 -3.3125 1.90625 -3.3125 C 2.164062 -3.3125 2.398438 -3.265625 2.609375 -3.171875 C 2.828125 -3.078125 3.015625 -2.941406 3.171875 -2.765625 C 3.328125 -2.585938 3.441406 -2.378906 3.515625 -2.140625 L 3.078125 -2.140625 C 2.992188 -2.378906 2.847656 -2.566406 2.640625 -2.703125 C 2.429688 -2.835938 2.191406 -2.90625 1.921875 -2.90625 C 1.679688 -2.90625 1.46875 -2.847656 1.28125 -2.734375 C 1.09375 -2.628906 0.945312 -2.476562 0.84375 -2.28125 C 0.738281 -2.09375 0.6875 -1.875 0.6875 -1.625 C 0.6875 -1.375 0.738281 -1.148438 0.84375 -0.953125 C 0.945312 -0.765625 1.09375 -0.613281 1.28125 -0.5 C 1.46875 -0.394531 1.679688 -0.34375 1.921875 -0.34375 C 2.203125 -0.34375 2.445312 -0.414062 2.65625 -0.5625 C 2.875 -0.707031 3.023438 -0.898438 3.109375 -1.140625 L 3.53125 -1.140625 C 3.46875 -0.898438 3.359375 -0.6875 3.203125 -0.5 C 3.046875 -0.320312 2.859375 -0.179688 2.640625 -0.078125 C 2.421875 0.015625 2.175781 0.0625 1.90625 0.0625 Z M 1.90625 0.0625 "/></g></g></g><g fill="#ffffff" fill-opacity="1"><g transform="translate(79.743496, 52.812673)"><g><path d="M 2.609375 0 L 2.609375 -1.46875 L 0.875 -1.46875 L 0.875 0 L 0.46875 0 L 0.46875 -3.25 L 0.875 -3.25 L 0.875 -1.859375 L 2.609375 -1.859375 L 2.609375 -3.25 L 3.015625 -3.25 L 3.015625 0 Z M 2.609375 0 "/></g></g></g><g fill="#ffffff" fill-opacity="1"><g transform="translate(86.929969, 52.812673)"><g><path d="M 0.46875 0 L 0.46875 -3.25 L 0.875 -3.25 L 0.875 0 Z M 0.46875 0 "/></g></g></g><g fill="#ffffff" fill-opacity="1"><g transform="translate(91.989682, 52.812673)"><g><path d="M 1.375 0 L 0.078125 -3.25 L 0.515625 -3.25 L 1.046875 -1.875 L 1.5625 -0.59375 L 2.0625 -1.875 L 2.609375 -3.25 L 3.046875 -3.25 L 1.75 0 Z M 1.375 0 "/></g></g></g><g fill="#ffffff" fill-opacity="1"><g transform="translate(98.814738, 52.812673)"><g><path d="M 0.46875 0 L 0.46875 -3.25 L 2.453125 -3.25 L 2.453125 -2.875 L 0.875 -2.875 L 0.875 -1.84375 L 2.328125 -1.84375 L 2.328125 -1.46875 L 0.875 -1.46875 L 0.875 -0.375 L 2.5 -0.375 L 2.5 0 Z M 0.46875 0 "/></g></g></g></svg>